<?xml version="1.0" encoding="UTF-8"?>
<!DOCTYPE svg PUBLIC "-//W3C//DTD SVG 1.1//EN" "http://www.w3.org/Graphics/SVG/1.1/DTD/svg11.dtd">
<!-- Creator: CorelDRAW 2020 -->
<svg xmlns="http://www.w3.org/2000/svg" xml:space="preserve" width="66.1864mm" height="42.107mm" version="1.1" style="shape-rendering:geometricPrecision; text-rendering:geometricPrecision; image-rendering:optimizeQuality; fill-rule:evenodd; clip-rule:evenodd"
viewBox="0 0 569.23 362.14"
 xmlns:xlink="http://www.w3.org/1999/xlink"
 xmlns:xodm="http://www.corel.com/coreldraw/odm/2003">
 <defs>
  <style type="text/css">
   <![CDATA[
    .str0 {stroke:#434242;stroke-width:0.66;stroke-miterlimit:22.9256}
    .fil1 {fill:#FEFEFE}
    .fil0 {fill:#212029}
   ]]>
  </style>
 </defs>
 <g id="Слой_x0020_1">
  <metadata id="CorelCorpID_0Corel-Layer"/>
  <g id="_1008037384">
   <path class="fil0 str0" d="M0.33 58.16c0,9.25 2.46,19.29 5.4,26.64l4.55 10.01c6.74,13.27 12.05,27.04 18.68,40.3l21.14 45.13c1.01,2.11 1.39,3.49 2.41,5.6l37.4 80.57c4.33,9.74 9.85,19.68 13.93,29.76l9.37 20.48c13.13,29.52 28.24,45.16 62.61,45.16 18.24,0 33.87,-9.07 44.11,-22.15 7.51,-9.59 11.77,-21.57 17.06,-32.46 0.92,-1.9 1.44,-3.47 2.42,-5.59 1.11,-2.39 1.76,-3.46 2.77,-5.96 7.01,-17.32 18.82,-39.12 26.32,-56.69 1.91,-4.47 3.43,-7.18 5.38,-11.37l11.16 -22.33c1.42,6.1 9.63,20.92 12.87,27.91l31.3 67.73c1.01,2.1 1.68,3.22 2.69,5.32 9.89,20.6 13.55,35.16 34.83,48.18 15.4,9.42 40.68,9.61 56.68,1.59 20.1,-10.07 29.68,-30.42 37.75,-50.35l93.32 -200.13c11.09,-22.52 21.12,-45.41 8.73,-69.92 -4.78,-9.46 -10.54,-16.78 -19.03,-23.2 -8.47,-6.4 -20.04,-11.75 -31.94,-11.75 -12.85,0 -23.39,0.94 -34.1,7.41 -10.2,6.16 -18.25,14.34 -23.68,25.1 -2.02,4 -3.31,7.45 -5.32,11.42 -3.8,7.48 -6.76,15.04 -10.44,22.32 -1.78,3.51 -3.35,7.36 -5.1,10.91l-5.34 11.41c-8.88,18.49 -16.55,37.5 -25.72,55.84 -1.55,3.11 -4.63,8.37 -5.34,11.41 -3.96,-1.06 -9.77,-17.86 -11.41,-21.36 -0.99,-2.13 -1.49,-3.7 -2.42,-5.59l-20.64 -44.9c-1.02,-2.21 -1.82,-3.62 -2.92,-5.82 -9.17,-18.19 -15.94,-39.59 -27.41,-55.6 -7.67,-10.71 -25.36,-22.56 -43.7,-22.56 -13.81,0 -22.21,1.24 -33.99,7.52 -6.25,3.33 -13.7,9.77 -17.73,15.04 -2.35,3.08 -4.14,6.1 -6.05,9.97l-18.2 39.33c-0.93,2.01 -1.8,3.53 -2.68,5.33 -0.94,1.9 -1.42,3.46 -2.41,5.6 -6.09,13.14 -12.73,25.82 -18.27,39.25l-5.27 11.48c-1.85,3.82 -3.77,7.87 -5.25,11.5 -1.27,3.13 -3.62,9.13 -5.93,10.82 -2.39,-1.75 -6.77,-13.34 -7.9,-16.12 -2.34,-5.71 -5.18,-10.83 -7.49,-16.54l-7.67 -16.36c-1.54,-3.04 -2.48,-5.68 -3.87,-8.51l-23.06 -49.03c-3.91,-8.15 -7.63,-16.84 -12.76,-24.38 -17.59,-25.84 -53.77,-33.99 -83.77,-14.12 -14.11,9.35 -26.06,27.47 -26.06,46.76z"/>
   <path class="fil1 str0" d="M44.51 150.37c1.9,7.34 65.91,143.62 71.97,156.49 10.11,21.46 13,32.62 33.48,42.95 20.18,10.18 44.81,3.94 58.29,-7.98 6.9,-6.1 10.94,-12.42 15.32,-22.59 10.6,-24.62 25.4,-53.33 36.48,-78.54 3.77,-8.58 7.86,-17.59 12.01,-25.85 2.02,-4.02 4.05,-8.46 6.03,-12.88 1.94,-4.34 3.62,-10.02 7.07,-12.64 3.2,5.11 53.38,114.14 59.27,126.93 4.68,10.16 7.07,16.04 14.05,23.07 11.7,11.79 35.06,20.94 56.94,12.29 19.42,-7.67 26.66,-19.96 34.92,-39.34 7.32,-17.17 15.93,-33.81 23.87,-51.1 3.3,-7.19 45.9,-97.46 46.77,-102.42 -11.32,10.37 -15.37,17 -31.12,28.46 -26.87,19.54 -62.26,21.72 -85.11,-4.86 -5.4,-6.28 -8.89,-8.68 -12.64,-17.19 -3.08,-7 -6.59,-13.69 -9.72,-20.86 -14.46,-33.13 -32.57,-68.36 -47.47,-102.54 -9.36,-21.47 -29.41,-37.45 -55.45,-34.28 -17.86,2.18 -30.02,10.46 -38.04,21.59 -5.7,7.92 -34.29,71.77 -38.63,81.55 -5.32,12 -22.67,49.75 -28.95,61.32 -2.75,5.07 -9.8,12.83 -13.51,16.35 -35.68,33.95 -82.84,-0.11 -108.2,-29.76l-5.01 -5.89c-0.5,-0.56 -0.56,-0.68 -1.15,-1.2 -1.04,-0.93 -0.14,-0.29 -1.47,-1.1z"/>
   <path class="fil1 str0" d="M504.17 7.6c-30.09,4.66 -37.43,15.43 -48.18,38.77 -5.53,12 -55.13,116.78 -55,119.56 0.26,5.7 16.61,19.26 21.35,22.21 9.46,5.88 22.04,9.06 35.84,6.05 37.12,-8.1 72.28,-54.56 87.31,-86.75 8.94,-19.15 23.44,-41.54 12.35,-67.19 -6.87,-15.88 -28.12,-36.6 -53.66,-32.64z"/>
   <path class="fil1 str0" d="M58.07 7.74c-14.38,2.02 -22.34,4.45 -31.19,12.17 -19.02,16.59 -24.88,39.94 -14.29,63.12 4.64,10.15 9.47,19.23 15.02,28.66 17.17,29.2 51.97,78.5 91.54,83.22 14.24,1.7 25.46,-2.25 33.81,-8.85 4.18,-3.31 7.2,-6.5 10.64,-11.19 4.75,-6.47 6.41,-6.91 2.71,-14.7 -8.7,-18.34 -19.06,-42.38 -27.73,-59.67 -9.71,-19.36 -18.05,-40.17 -27.7,-59.72 -10.1,-20.46 -28.04,-36.52 -52.82,-33.04z"/>
  </g>
 </g>
</svg>
