<svg id="bold" enable-background="new 0 0 24 24" height="512" viewBox="0 0 24 24" width="512"
     xmlns="http://www.w3.org/2000/svg">
    <path d="m19 10c-.552 0-1-.448-1-1v-1c0-.552.448-1 1-1s1 .448 1 1v1c0 .552-.448 1-1 1z" fill="#FFFFFF"/>
    <path d="m22 6h-1c-.552 0-1-.448-1-1s.448-1 1-1h1c.552 0 1 .448 1 1s-.448 1-1 1z" fill="#FFFFFF"/>
    <path d="m19 3c-.552 0-1-.448-1-1v-1c0-.552.448-1 1-1s1 .448 1 1v1c0 .552-.448 1-1 1z" fill="#FFFFFF"/>
    <path
        d="m15 10.685v-1.935c0-.798-.54-1.465-1.271-1.675.63-.737 1.676-1.075 4.271-1.075.552 0 1-.448 1-1s-.448-1-1-1c-3.176 0-5.251.457-6.463 2.789-.035.068-.042.14-.06.211h-.727c-.965 0-1.75.785-1.75 1.75v1.935c-2.361 1.126-4 3.53-4 6.315 0 3.86 3.14 7 7 7s7-3.14 7-7c0-2.785-1.639-5.189-4-6.315zm-3 3.315c-1.654 0-3 1.346-3 3 0 .552-.448 1-1 1s-1-.448-1-1c0-2.757 2.243-5 5-5 .552 0 1 .448 1 1s-.448 1-1 1z"
        fill="#FFFFFF"/>
</svg>
