<svg width="38" height="24" viewBox="0 0 38 24" fill="none" xmlns="http://www.w3.org/2000/svg">
    <path fill-rule="evenodd" clip-rule="evenodd" d="M8.81367 22L4.53444 9.2993L18.7429 4.51207L19.4129 6.28922C19.2675 6.32492 19.1238 6.36599 18.9822 6.41224L17.6455 6.15793C16.5604 5.95147 15.5134 6.66376 15.307 7.74886L12.5955 22H16.9039L18.8761 11.7409C18.9658 11.2741 19.2112 10.8765 19.5482 10.5917L33.4544 13.2375L31.7873 22H35.859L37.7578 12.0204C37.9642 10.9353 37.2519 9.88832 36.1668 9.68186L24.1013 7.38622L21.8049 1.29495C21.425 0.287268 20.3154 -0.238688 19.2948 0.105162L1.36196 6.14726C0.315206 6.49994 -0.24745 7.63441 0.105231 8.68116L4.59273 22H8.81367Z" fill="#7EC856"/>
    <path d="M25.9074 16.2412L27.5 21.9999L21 22L25.9074 16.2412Z" fill="#7EC856"/>
</svg>
