<svg width="23" height="25" viewBox="0 0 23 25" fill="none" xmlns="http://www.w3.org/2000/svg">
    <path fill-rule="evenodd" clip-rule="evenodd" d="M13.962 4.87475L13.8009 4.39668L13.7563 4.26445L12.9581 1.89531L12.3195 0L10.4242 0.638585L1.89531 3.51222L0 4.1508L0.638585 6.04611L5.74726 21.2086H6.0902L5.99998 21.6828L7.96474 22.0566L16.8061 23.7388L18.7709 24.1126L19.1447 22.1479L21.7615 8.39459L22.1353 6.42984L20.1705 6.05602L13.962 4.87475ZM8.50117 20.1228L11 6.39668H11.2607L19.7967 8.02077L17.18 21.774L8.50117 20.1228ZM11.4493 4.39668L11.3291 4.37382L9.36438 4L8.99056 5.96475L6.7281 17.8559L2.5339 5.40753L11.0628 2.5339L11.6904 4.39668H11.4493Z" fill="white"/>
    <path d="M15.1817 9.94845L16.6564 14.6212L11.9112 13.5973L15.1817 9.94845Z" fill="white"/>
    <path d="M13.3859 18.27L16.6564 14.6212L11.9112 13.5973L13.3859 18.27Z" fill="white"/>
</svg>
