<svg id="icon-left" viewBox="0 0 21 32" xmlns="http://www.w3.org/2000/svg">
    <path
        d="M3.028 16.271c0.054 0.543 0.273 1.084 0.655 1.518l9.829 11.387c0.437 0.597 1.147 0.922 1.857 1.030 0.71 0.054 1.474-0.163 2.020-0.651s0.928-1.139 0.928-1.898c0.055-0.759-0.218-1.464-0.709-2.006l-8.3-9.652 8.3-9.652c0.491-0.542 0.764-1.247 0.709-2.006s-0.382-1.409-0.928-1.898c-0.546-0.488-1.31-0.705-2.020-0.651s-1.42 0.434-1.856 1.030l-9.829 11.387c-0.491 0.651-0.71 1.356-0.655 2.061z"
        fill="#5E6B86" />
</svg>
