<svg width="18" height="19" viewBox="0 0 18 19" fill="none" xmlns="http://www.w3.org/2000/svg">
    <path d="M7 6L8 4.5H9M11 6L10 4.5H9M9 4.5V2L7.5 1H3.5" stroke="#FFFFFF" stroke-width="2" stroke-linecap="round" stroke-linejoin="round"/>
    <path d="M3 6.5L1 8.5V16.5L2 17.5L3 16.5L5 14.5H13L15 16.5L16 17.5L17 16.5V8.5L15 6.5H3Z" stroke="#FFFFFF" stroke-width="2" stroke-linecap="round" stroke-linejoin="round"/>
    <path d="M5 9.5V11M5 12.5V11M5 11H3.5H6.5M14 12.5H13L12 11.5V10.5L13 9.5H14L15 10.5V11.5L14 12.5Z" stroke="#FFFFFF" stroke-linecap="round" stroke-linejoin="round"/>
</svg>
