<svg width="52" height="35" viewBox="0 0 52 35" fill="none" xmlns="http://www.w3.org/2000/svg">
    <path d="M31.5926 2L37.5185 18.2963H13.8148L19.7407 2H31.5926Z" stroke="#FFBE1D" stroke-width="4" stroke-linecap="round" stroke-linejoin="round"/>
    <path d="M46.3704 24.7036V22.7036C47.2114 22.7036 47.9625 23.2297 48.2499 24.0201L46.3704 24.7036ZM34.5185 24.7036L32.6389 24.0201C32.9263 23.2297 33.6775 22.7036 34.5185 22.7036V24.7036ZM33.4351 33.5352C33.0576 34.5733 31.9101 35.1088 30.872 34.7313C29.834 34.3539 29.2985 33.2063 29.6759 32.1683L33.4351 33.5352ZM51.2129 32.1683C51.5904 33.2063 51.0549 34.3539 50.0168 34.7313C48.9787 35.1088 47.8312 34.5733 47.4537 33.5352L51.2129 32.1683ZM46.3704 26.7036H34.5185V22.7036H46.3704V26.7036ZM36.3981 25.3871L33.4351 33.5352L29.6759 32.1683L32.6389 24.0201L36.3981 25.3871ZM47.4537 33.5352L44.4908 25.3871L48.2499 24.0201L51.2129 32.1683L47.4537 33.5352Z" fill="#FFBE1D"/>
    <path d="M16.8148 24.7036V22.7036C17.6558 22.7036 18.407 23.2297 18.6944 24.0201L16.8148 24.7036ZM4.96296 24.7036L3.08337 24.0201C3.37078 23.2297 4.12194 22.7036 4.96296 22.7036V24.7036ZM3.87958 33.5352C3.5021 34.5733 2.35458 35.1088 1.31651 34.7313C0.27844 34.3539 -0.257072 33.2063 0.120407 32.1683L3.87958 33.5352ZM21.6574 32.1683C22.0348 33.2063 21.4993 34.3539 20.4613 34.7313C19.4232 35.1088 18.2757 34.5733 17.8982 33.5352L21.6574 32.1683ZM16.8148 26.7036H4.96296V22.7036H16.8148V26.7036ZM6.84254 25.3871L3.87958 33.5352L0.120407 32.1683L3.08337 24.0201L6.84254 25.3871ZM17.8982 33.5352L14.9352 25.3871L18.6944 24.0201L21.6574 32.1683L17.8982 33.5352Z" fill="#FFBE1D"/>
</svg>
