<svg width="17" height="18" viewBox="0 0 17 18" fill="none" xmlns="http://www.w3.org/2000/svg">
    <path d="M6 16.5H2V10M6 16.5V6.5M6 16.5H11M6 6.5H2L1 7.5V9.5H2V10M6 6.5H11M11 16.5H15V10M11 16.5V6.5M11 6.5H15L16 7.5V9.5H15V10M2 10H15" stroke="#5E6B86" stroke-width="2" stroke-linecap="round" stroke-linejoin="round"/>
    <path d="M7.5 5.5C7.5 5.72864 7.4924 5.88831 7.4818 5.99896C7.47773 5.99914 7.47358 5.99933 7.46935 5.99951C7.31883 6.00586 7.15537 6.00438 6.93941 6.00243C6.81343 6.0013 6.66958 6 6.5 6C6.29877 6 5.96788 5.92137 5.53904 5.71056C5.12462 5.50685 4.68441 5.21185 4.28238 4.86457C3.87909 4.51619 3.54042 4.13788 3.3101 3.78135C3.07042 3.41035 3 3.14456 3 3C3 1.89543 3.89543 1 5 1C5.03439 1 5.22244 1.03288 5.55647 1.35077C5.86887 1.64808 6.19859 2.09238 6.50325 2.62511C6.80458 3.15204 7.05994 3.72783 7.23788 4.25919C7.42107 4.80623 7.5 5.24023 7.5 5.5Z" stroke="#5E6B86" stroke-width="2"/>
    <path d="M9.5 5.5C9.5 5.72864 9.5076 5.88831 9.5182 5.99896C9.52227 5.99914 9.52642 5.99933 9.53065 5.99951C9.68117 6.00586 9.84463 6.00438 10.0606 6.00243C10.1866 6.0013 10.3304 6 10.5 6C10.7012 6 11.0321 5.92137 11.461 5.71056C11.8754 5.50685 12.3156 5.21185 12.7176 4.86457C13.1209 4.51619 13.4596 4.13788 13.6899 3.78135C13.9296 3.41035 14 3.14456 14 3C14 1.89543 13.1046 1 12 1C11.9656 1 11.7776 1.03288 11.4435 1.35077C11.1311 1.64808 10.8014 2.09238 10.4968 2.62511C10.1954 3.15204 9.94006 3.72783 9.76212 4.25919C9.57893 4.80623 9.5 5.24023 9.5 5.5Z" stroke="#5E6B86" stroke-width="2"/>
</svg>
