
<svg version="1.1" id="Layer_1" xmlns="http://www.w3.org/2000/svg" xmlns:xlink="http://www.w3.org/1999/xlink" x="0px" y="0px"
	 viewBox="0 0 512 512" style="enable-background:new 0 0 512 512;" xml:space="preserve" fill='#3a4150'>
<g>
	<path d="M303.6,320.3c85.5,0,145.3-59.7,145.3-145.6S389.1,31,303.6,31H139.5c-6.7,0-12.1,5.4-12.1,12.1v207.6H75.2
		c-6.7,0-12.1,5.4-12.1,12.1v45.6c0,6.7,5.4,12.1,12.1,12.1h52.2v32.1H75.2c-6.7,0-12.1,5.4-12.1,12.1v40.2
		c0,6.7,5.4,12.1,12.1,12.1h52.2v52.2c0,6.7,5.4,12.1,12.1,12.1h58.8c6.7,0,12.1-5.4,12.1-12.1v-52.2h162.2
		c6.7,0,12.1-5.4,12.1-12.1v-40.2c0-6.7-5.4-12.1-12.1-12.1H210.4v-32.1H303.6z M210.4,100.1h79.1c46.9,0,75.2,29.2,75.2,74.7
		c0,46-28.3,75.9-76.5,75.9h-77.8V100.1z"/>
</g>
</svg>
