<svg width="20" height="20" viewBox="0 0 20 20" fill="none" xmlns="http://www.w3.org/2000/svg">
    <path d="M6.53033 11.9696C6.23744 11.6767 5.76256 11.6767 5.46967 11.9696C5.17678 12.2625 5.17678 12.7374 5.46967 13.0303L6.53033 11.9696ZM14.5303 13.0303C14.8232 12.7374 14.8232 12.2625 14.5303 11.9696C14.2374 11.6767 13.7626 11.6767 13.4697 11.9696L14.5303 13.0303ZM6 12.5C5.46967 13.0303 5.46981 13.0304 5.46995 13.0306C5.47001 13.0306 5.47016 13.0308 5.47028 13.0309C5.47052 13.0311 5.47078 13.0314 5.47108 13.0317C5.47167 13.0323 5.47239 13.033 5.47323 13.0338C5.47491 13.0355 5.47708 13.0377 5.47973 13.0403C5.48503 13.0455 5.49227 13.0526 5.50138 13.0614C5.5196 13.079 5.54534 13.1036 5.57811 13.1342C5.64358 13.1953 5.73742 13.2806 5.85566 13.3819C6.09135 13.5839 6.4281 13.8534 6.83397 14.124C7.62133 14.6489 8.77456 15.25 10 15.25V13.75C9.22544 13.75 8.37867 13.351 7.66603 12.8759C7.3219 12.6465 7.03365 12.416 6.83184 12.243C6.73133 12.1569 6.65329 12.0859 6.60158 12.0376C6.57575 12.0135 6.55657 11.9951 6.54452 11.9835C6.53849 11.9776 6.53426 11.9735 6.53187 11.9712C6.53068 11.97 6.52995 11.9693 6.52969 11.969C6.52956 11.9689 6.52955 11.9689 6.52965 11.969C6.52971 11.969 6.52979 11.9691 6.5299 11.9692C6.52996 11.9693 6.53007 11.9694 6.53009 11.9694C6.53021 11.9695 6.53033 11.9696 6 12.5ZM10 15.25C11.2254 15.25 12.3787 14.6489 13.166 14.124C13.5719 13.8534 13.9086 13.5839 14.1443 13.3819C14.2626 13.2806 14.3564 13.1953 14.4219 13.1342C14.4547 13.1036 14.4804 13.079 14.4986 13.0614C14.5077 13.0526 14.515 13.0455 14.5203 13.0403C14.5229 13.0377 14.5251 13.0355 14.5268 13.0338C14.5276 13.033 14.5283 13.0323 14.5289 13.0317C14.5292 13.0314 14.5295 13.0311 14.5297 13.0309C14.5298 13.0308 14.53 13.0306 14.53 13.0306C14.5302 13.0304 14.5303 13.0303 14 12.5C13.4697 11.9696 13.4698 11.9695 13.4699 11.9694C13.4699 11.9694 13.47 11.9693 13.4701 11.9692C13.4702 11.9691 13.4703 11.969 13.4703 11.969C13.4705 11.9689 13.4704 11.9689 13.4703 11.969C13.4701 11.9693 13.4693 11.97 13.4681 11.9712C13.4657 11.9735 13.4615 11.9776 13.4555 11.9835C13.4434 11.9951 13.4242 12.0135 13.3984 12.0376C13.3467 12.0859 13.2687 12.1569 13.1682 12.243C12.9664 12.416 12.6781 12.6465 12.334 12.8759C11.6213 13.351 10.7746 13.75 10 13.75V15.25Z" fill="#5E6B86"/>
    <circle cx="10" cy="9.99997" r="9" stroke="#5E6B86" stroke-width="2"/>
    <circle cx="7.5" cy="7.49997" r="1.5" fill="#5E6B86"/>
    <circle cx="12.5" cy="7.49997" r="1.5" fill="#5E6B86"/>
</svg>
