<?xml version="1.0" encoding="utf-8"?>
<!-- Generator: Adobe Illustrator 21.0.2, SVG Export Plug-In . SVG Version: 6.00 Build 0)  -->
<svg version="1.1" id="Слой_1" xmlns="http://www.w3.org/2000/svg" xmlns:xlink="http://www.w3.org/1999/xlink" x="0px" y="0px"
	 width="93px" height="24px" viewBox="0 0 93 24" style="enable-background:new 0 0 93 24;" xml:space="preserve">
<style type="text/css">
	.st0{fill:#5B6064;}
	.st1{filter:url(#Adobe_OpacityMaskFilter);}
	.st2{fill:#FFFFFF;}
	.st3{mask:url(#_x33_w57e5u3tb);fill:#8F9395;}
	.st4{fill:#8F9395;}
</style>
<g>
	<g>
		<circle id="ndotst45va_1_" class="st0" cx="11.7" cy="11.7" r="11.7"/>
	</g>
	<defs>
		<filter id="Adobe_OpacityMaskFilter" filterUnits="userSpaceOnUse" x="0" y="-0.7" width="23.4" height="24.9">
			<feColorMatrix  type="matrix" values="1 0 0 0 0  0 1 0 0 0  0 0 1 0 0  0 0 0 1 0"/>
		</filter>
	</defs>
	<mask maskUnits="userSpaceOnUse" x="0" y="-0.7" width="23.4" height="24.9" id="_x33_w57e5u3tb">
		<g class="st1">
			<circle id="ndotst45va" class="st2" cx="11.7" cy="11.7" r="11.7"/>
		</g>
	</mask>
	<path class="st3" d="M0,9.2h23.4v5H0V9.2z M0-0.7h23.4v5H0V-0.7z M0,19.1h23.4v5H0V19.1z"/>
	<path class="st4" d="M40.9,19.8c3.3,0,5-1.5,5-4.3c0-1.5-0.7-2.8-1.9-3.5c0,0,0,0-0.1,0c0,0,0.1,0,0.1,0c0.9-0.7,1.5-1.7,1.5-2.9
		c0-1.5-0.6-4.1-4.7-4.1h-4.4C36.2,5,36,5.2,36,5.4v14.1c0,0.2,0.2,0.4,0.4,0.4H40.9z M68.6,19.8c0.2,0,0.3-0.2,0.3-0.3V5.4
		c0-0.2-0.2-0.3-0.3-0.3h-1.3c-0.2,0-0.3,0.2-0.3,0.3v14.1c0,0.2,0.2,0.3,0.3,0.3C67.3,19.8,68.6,19.8,68.6,19.8z M72.3,7.7
		c0.6,0,1.1-0.5,1.1-1.1c0-0.6-0.5-1.1-1.1-1.1c-0.6,0-1.1,0.5-1.1,1.1C71.1,7.3,71.6,7.7,72.3,7.7z M41,11.2h-3V7h2.8
		c2.1,0,2.4,1,2.4,2.1C43.3,10.5,42.6,11.2,41,11.2z M77.1,19.8c0.2,0,0.3-0.2,0.3-0.3v-7.6l0,0c0.5-0.3,1.1-0.5,2.1-0.5
		c1.3,0,1.5,0.5,1.5,1.3v6.8c0,0.2,0.2,0.3,0.3,0.3h1.3c0.2,0,0.3-0.2,0.3-0.3v-6.8c0-2.1-1.2-3.2-3.5-3.2c-0.9,0-1.7,0.3-2.6,0.8
		l-0.1,0L76.8,10c0-0.1-0.2-0.2-0.3-0.2h-0.7c-0.2,0-0.3,0.2-0.3,0.3v9.4c0,0.2,0.2,0.3,0.3,0.3L77.1,19.8L77.1,19.8z M51.6,20
		c1.3,0,2.1-0.1,3.2-0.4c0.1,0,0.2-0.2,0.2-0.3v-1.1c0-0.1-0.1-0.2-0.2-0.3c-0.1-0.1-0.2-0.1-0.3,0c-1,0.2-1.7,0.3-2.9,0.3
		c-1.8,0-2.1-1.1-2.2-2.4l0-0.1h5.8c0.2,0,0.3-0.2,0.3-0.3v-0.6c0-2.5-0.3-5.2-3.9-5.2c-4.1,0-4.3,3.6-4.3,5.1v0.3
		C47.3,16.4,47.5,20,51.6,20z M61.3,20c1.3,0,2.1-0.1,3.2-0.4c0.1,0,0.2-0.2,0.2-0.3v-1.1c0-0.1-0.1-0.2-0.2-0.3
		c-0.1-0.1-0.2-0.1-0.3,0c-1,0.2-1.7,0.3-2.9,0.3c-1.8,0-2.1-1.1-2.2-2.4l0-0.1h5.8c0.2,0,0.3-0.2,0.3-0.3v-0.6
		c0-2.5-0.3-5.2-3.9-5.2c-4.1,0-4.3,3.6-4.3,5.1v0.3C57,16.4,57.2,20,61.3,20L61.3,20z M89.1,20c1.3,0,2.1-0.1,3.2-0.4
		c0.1,0,0.2-0.2,0.2-0.3v-1.1c0-0.1-0.1-0.2-0.2-0.3c-0.1-0.1-0.2-0.1-0.3,0c-1,0.2-1.7,0.3-2.9,0.3c-1.8,0-2.1-1.1-2.2-2.4l0-0.1
		h5.8c0.2,0,0.3-0.2,0.3-0.3v-0.6c0-2.5-0.3-5.2-3.9-5.2c-4.1,0-4.3,3.6-4.3,5.1v0.3C84.9,16.4,85,20,89.1,20z M72.9,19.8
		c0.2,0,0.3-0.2,0.3-0.3v-9.4c0-0.2-0.2-0.3-0.3-0.3h-1.3c-0.2,0-0.3,0.2-0.3,0.3v9.4c0,0.2,0.2,0.3,0.3,0.3L72.9,19.8L72.9,19.8z
		 M53.5,14h-4.1l0-0.1c0.1-1.3,0.4-2.5,2.2-2.5C53.2,11.4,53.5,12.2,53.5,14L53.5,14z M63.2,14H59l0-0.1c0.1-1.3,0.4-2.5,2.2-2.5
		C62.8,11.4,63.1,12.2,63.2,14L63.2,14z M91,14h-4.1l0-0.1c0.1-1.3,0.4-2.5,2.2-2.5C90.7,11.4,91,12.2,91,14L91,14L91,14z M41,17.8
		h-2.9v-4.7h3v0c2,0,2.7,0.6,2.7,2.4C43.8,16.6,43.4,17.8,41,17.8z"/>
</g>
</svg>
