<?xml version="1.0" encoding="utf-8"?>
<!-- Generator: Adobe Illustrator 21.0.2, SVG Export Plug-In . SVG Version: 6.00 Build 0)  -->
<svg version="1.1" id="Слой_1" xmlns="http://www.w3.org/2000/svg" xmlns:xlink="http://www.w3.org/1999/xlink" x="0px" y="0px"
	 width="144.1px" height="26px" viewBox="0 0 144.1 26" style="enable-background:new 0 0 144.1 26;" xml:space="preserve">
<style type="text/css">
	.st0{fill:#5B6064;}
	.st1{fill:#8F9395;}
</style>
<g>
	<path class="st0" d="M26.7,23.2H15.3V2.8h11.4V23.2z"/>
	<path class="st1" d="M16.1,13c0-4.1,1.9-7.8,5-10.2C18.8,1,16,0,13,0C5.8,0,0,5.8,0,13c0,7.2,5.8,13,13,13c3,0,5.8-1,8-2.8
		C18,20.8,16.1,17.1,16.1,13 M143.1,17.4v0.2h0.2c0,0,0.1,0,0.1,0c0,0,0,0,0-0.1c0,0,0-0.1,0-0.1c0,0-0.1,0-0.1,0H143.1L143.1,17.4z
		 M143.3,17.3c0.1,0,0.2,0,0.2,0.1c0.1,0,0.1,0.1,0.1,0.2c0,0.1,0,0.1-0.1,0.2c0,0-0.1,0.1-0.2,0.1l0.2,0.3h-0.2l-0.2-0.3h-0.1V18
		H143v-0.7L143.3,17.3L143.3,17.3z M143.3,18.3c0.1,0,0.2,0,0.2,0c0.1,0,0.1-0.1,0.2-0.1s0.1-0.1,0.1-0.2c0-0.1,0-0.2,0-0.2
		c0-0.1,0-0.2,0-0.2c0-0.1-0.1-0.1-0.1-0.2c-0.1-0.1-0.1-0.1-0.2-0.1c-0.1,0-0.2,0-0.2,0c-0.1,0-0.2,0-0.2,0c-0.1,0-0.1,0.1-0.2,0.1
		c-0.1,0.1-0.1,0.1-0.1,0.2c0,0.1,0,0.2,0,0.2c0,0.1,0,0.2,0,0.2c0,0.1,0.1,0.1,0.1,0.2c0.1,0.1,0.1,0.1,0.2,0.1
		C143.1,18.3,143.2,18.3,143.3,18.3 M143.3,16.9c0.1,0,0.2,0,0.3,0.1c0.1,0,0.2,0.1,0.3,0.2c0.1,0.1,0.1,0.2,0.2,0.3
		c0,0.1,0.1,0.2,0.1,0.3c0,0.1,0,0.2-0.1,0.3c0,0.1-0.1,0.2-0.2,0.3c-0.1,0.1-0.2,0.1-0.3,0.2c-0.1,0-0.2,0.1-0.3,0.1
		c-0.1,0-0.2,0-0.3-0.1c-0.1,0-0.2-0.1-0.3-0.2c-0.1-0.1-0.1-0.2-0.2-0.3c0-0.1-0.1-0.2-0.1-0.3c0-0.1,0-0.2,0.1-0.3
		c0-0.1,0.1-0.2,0.2-0.3c0.1-0.1,0.2-0.1,0.3-0.2C143,16.9,143.1,16.9,143.3,16.9 M68.2,14c0-1.4,0.9-2.6,2.4-2.6
		c1.4,0,2.4,1.1,2.4,2.6s-1,2.6-2.4,2.6C69.2,16.6,68.2,15.4,68.2,14 M74.8,14v-4H73v1c-0.6-0.7-1.4-1.2-2.5-1.2c-2.3,0-4,1.8-4,4.2
		c0,2.5,1.8,4.2,4,4.2c1.1,0,2-0.5,2.5-1.2v1h1.7L74.8,14L74.8,14z M133.8,14c0-1.4,0.9-2.6,2.4-2.6c1.4,0,2.4,1.1,2.4,2.6
		s-1,2.6-2.4,2.6C134.8,16.6,133.8,15.4,133.8,14 M140.3,14V6.7h-1.8V11c-0.6-0.7-1.4-1.2-2.5-1.2c-2.3,0-4,1.8-4,4.2
		c0,2.5,1.8,4.2,4,4.2c1.1,0,2-0.5,2.5-1.2v1h1.8L140.3,14L140.3,14z M96.5,11.3c1.1,0,1.9,0.7,2,2h-4.2
		C94.5,12.1,95.2,11.3,96.5,11.3 M96.5,9.8c-2.4,0-4,1.7-4,4.2c0,2.6,1.7,4.2,4.1,4.2c1.2,0,2.3-0.3,3.3-1.1L99,15.8
		c-0.7,0.5-1.5,0.8-2.3,0.8c-1.1,0-2.2-0.5-2.4-2h6c0-0.2,0-0.4,0-0.7C100.3,11.5,98.7,9.8,96.5,9.8 M117.6,14
		c0-1.4,0.9-2.6,2.4-2.6c1.4,0,2.4,1.1,2.4,2.6s-1,2.6-2.4,2.6C118.5,16.6,117.6,15.4,117.6,14 M124.1,14v-4h-1.7v1
		c-0.6-0.7-1.4-1.2-2.5-1.2c-2.3,0-4,1.8-4,4.2c0,2.5,1.8,4.2,4,4.2c1.1,0,2-0.5,2.5-1.2v1h1.7L124.1,14L124.1,14z M107.7,14
		c0,2.4,1.7,4.2,4.3,4.2c1.2,0,2-0.3,2.9-1l-0.8-1.4c-0.7,0.5-1.3,0.7-2.1,0.7c-1.4,0-2.4-1-2.4-2.6c0-1.6,1-2.6,2.4-2.6
		c0.8,0,1.4,0.3,2.1,0.7l0.8-1.4c-0.9-0.7-1.7-1-2.9-1C109.4,9.8,107.7,11.6,107.7,14 M130.3,9.8c-1,0-1.7,0.5-2.1,1.2v-1h-1.7V18
		h1.8v-4.5c0-1.3,0.6-2.1,1.7-2.1c0.4,0,0.7,0.1,1.1,0.2l0.5-1.7C131.1,9.8,130.6,9.8,130.3,9.8 M83.4,10.6c-0.8-0.6-2-0.8-3.3-0.8
		c-2,0-3.3,1-3.3,2.6c0,1.3,1,2.1,2.8,2.4l0.8,0.1c1,0.1,1.4,0.4,1.4,0.8c0,0.6-0.6,1-1.8,1c-1.2,0-2.1-0.4-2.7-0.8l-0.8,1.4
		c1,0.7,2.2,1,3.5,1c2.3,0,3.7-1.1,3.7-2.6c0-1.4-1.1-2.2-2.8-2.4L80,13.1c-0.8-0.1-1.4-0.3-1.4-0.8c0-0.6,0.6-0.9,1.5-0.9
		c1,0,2,0.4,2.5,0.7C82.6,12,83.4,10.6,83.4,10.6z M106,9.8c-1,0-1.7,0.5-2.1,1.2v-1h-1.7V18h1.7v-4.5c0-1.3,0.6-2.1,1.7-2.1
		c0.4,0,0.7,0.1,1.1,0.2l0.5-1.7C106.8,9.8,106.3,9.8,106,9.8 M91,10h-2.9V7.5h-1.8V10h-1.6v1.6h1.6v3.7c0,1.9,0.7,3,2.8,3
		c0.8,0,1.6-0.2,2.2-0.6l-0.5-1.5c-0.5,0.3-1.1,0.5-1.5,0.5c-0.9,0-1.2-0.5-1.2-1.3v-3.6H91C91,11.6,91,10,91,10z M64.9,18V13
		c0-1.9-1.2-3.2-3.2-3.2c-1,0-2.1,0.3-2.8,1.4c-0.6-0.9-1.4-1.4-2.7-1.4c-0.9,0-1.7,0.3-2.4,1.2v-1h-1.7V18h1.8v-4.5
		c0-1.4,0.8-2.1,2-2.1c1.2,0,1.7,0.8,1.7,2.1V18h1.8v-4.5c0-1.4,0.8-2.1,2-2.1c1.2,0,1.8,0.8,1.8,2.1V18L64.9,18L64.9,18z"/>
	<path class="st0" d="M42.1,13c0,7.2-5.8,13-13,13c-3,0-5.8-1-8-2.8c3-2.4,5-6.1,5-10.2S24,5.2,21,2.8C23.2,1,26,0,29.1,0
		C36.2,0,42.1,5.8,42.1,13"/>
</g>
</svg>
