<?xml version="1.0" encoding="utf-8"?>
<!-- Generator: Adobe Illustrator 21.0.2, SVG Export Plug-In . SVG Version: 6.00 Build 0)  -->
<svg version="1.1" id="Слой_1" xmlns="http://www.w3.org/2000/svg" xmlns:xlink="http://www.w3.org/1999/xlink" x="0px" y="0px"
	 width="64.5px" height="29px" viewBox="0 0 64.5 29" style="enable-background:new 0 0 64.5 29;" xml:space="preserve">
<style type="text/css">
	.st0{fill:#5B6064;}
	.st1{fill:#8F9395;}
</style>
<g>
	<path class="st0" d="M63.7,20c0-0.4-0.3-0.7-0.7-0.7c-0.4,0-0.7,0.3-0.8,0.7H63.7L63.7,20z M63,18.7c0.9,0,1.5,0.7,1.5,1.6
		c0,0.1,0,0.2,0,0.3h-2.3c0.1,0.6,0.5,0.9,1,0.9c0.3,0,0.7-0.1,0.9-0.4l0.3,0.6c-0.3,0.3-0.9,0.5-1.3,0.5c-1.1,0-1.8-0.8-1.8-1.7
		C61.3,19.4,62,18.7,63,18.7z M56.1,18.7h0.8v2.6h1v-2.6h0.8v2.6h1v-2.6h0.8v2.6H61v1.5h-0.7V22h-4.1L56.1,18.7L56.1,18.7z
		 M53.6,21.4c0.5,0,1-0.4,1-1c0-0.6-0.4-1-1-1c-0.5,0-1,0.4-1,1C52.7,21,53.1,21.4,53.6,21.4z M53.6,18.7c1,0,1.8,0.7,1.8,1.7
		c0,1-0.8,1.7-1.8,1.7s-1.8-0.7-1.8-1.7C51.8,19.4,52.6,18.7,53.6,18.7z M49.7,21.4c0.5,0,0.8-0.4,0.8-1c0-0.6-0.3-1-0.8-1
		c-0.4,0-0.8,0.3-0.8,1C48.9,20.9,49.1,21.4,49.7,21.4z M48.1,18.7h0.8V19c0,0.1,0,0.2,0,0.2h0c0.2-0.4,0.6-0.6,1.1-0.6
		c0.9,0,1.5,0.7,1.5,1.7c0,1-0.6,1.7-1.5,1.7c-0.4,0-0.7-0.2-1-0.5h0c0,0,0,0.1,0,0.3v1.4h-0.8C48.1,23.3,48.1,18.7,48.1,18.7z
		 M44.2,18.7h3V22h-0.8v-2.6H45V22h-0.8V18.7L44.2,18.7z M40.7,18.2h0.6v-0.8h-0.6V18.2z M41.1,20c0-0.4-0.3-0.7-0.7-0.7
		c-0.4,0-0.7,0.3-0.8,0.7H41.1z M39.5,18.2h0.6v-0.8h-0.6V18.2z M40.4,18.7c0.9,0,1.5,0.7,1.5,1.6c0,0.1,0,0.2,0,0.3h-2.3
		c0.1,0.6,0.5,0.9,1,0.9c0.3,0,0.7-0.1,0.9-0.4l0.3,0.6c-0.3,0.3-0.9,0.5-1.3,0.5c-1.1,0-1.8-0.8-1.8-1.7
		C38.7,19.4,39.4,18.7,40.4,18.7z M37.1,18.7c0.4,0,1,0.1,1.3,0.5L38,19.7c-0.2-0.2-0.5-0.4-0.9-0.4c-0.6,0-1,0.5-1,1
		c0,0.6,0.4,1,1,1c0.3,0,0.7-0.2,1-0.4l0.3,0.6c-0.3,0.3-0.8,0.5-1.4,0.5c-1.1,0-1.8-0.8-1.8-1.7C35.3,19.5,36,18.7,37.1,18.7
		L37.1,18.7z M33.3,21.3c0.4,0,0.7-0.3,0.7-0.7c0-0.4-0.2-0.7-0.7-0.7h-0.9v1.3H33.3z M33.2,19.3c0.4,0,0.6-0.3,0.6-0.6
		s-0.2-0.6-0.6-0.6h-0.8v1.2L33.2,19.3L33.2,19.3z M31.5,17.4h1.6c0.8,0,1.4,0.4,1.4,1.2c0,0.4-0.2,0.8-0.6,1v0
		c0.5,0.1,0.7,0.6,0.7,1.1c0,0.9-0.7,1.3-1.6,1.3h-1.7L31.5,17.4L31.5,17.4z"/>
	<path class="st1" d="M19.4,25.5c2.5,0,5.2,0.8,8.1,3.5c0.3,0.3,0.7-0.1,0.4-0.4c-2.9-3.7-5.6-4.4-8.3-5c-3.3-0.7-5-2.6-6.2-4.6
		c-0.2-0.4-0.3-0.3-0.4,0.2c0,0.6,0,1.5,0.2,2.3c-0.1,0-0.3,0-0.4,0c-4.7,0-8.5-3.8-8.5-8.5s3.8-8.5,8.5-8.5c4.7,0,8.5,3.8,8.5,8.5
		c0,0.3,0,0.7-0.1,1c-0.6-0.1-1.9-0.1-2.7-0.1c-0.3,0-0.3,0.2,0,0.2c2.8,0.5,4.8,2.3,5.2,5.4c0,0.1,0.1,0.1,0.1,0
		c1.2-1.9,1.8-4.2,1.8-6.6C25.8,5.8,20,0,12.9,0C5.8,0,0,5.8,0,12.9C0,20,5.8,25.8,12.9,25.8C14.8,25.8,16.7,25.5,19.4,25.5
		L19.4,25.5z M20.4,20.8c0.6,0.5,0.8,1.1,0.4,1.5c-0.2,0.2-0.4,0.3-0.8,0.3c-0.3,0-0.6-0.1-0.9-0.3c-0.5-0.5-0.7-1.2-0.3-1.6
		c0.1-0.2,0.4-0.3,0.6-0.3C19.8,20.4,20.1,20.5,20.4,20.8z M23,19.5c0.1,0.6-0.1,0.8-0.3,0.8c-0.2,0-0.4-0.2-0.7-0.7
		c-0.3-0.4-0.4-1-0.2-1.2c0.1-0.2,0.3-0.2,0.5-0.2C22.8,18.5,23,19.2,23,19.5z M37.4,11.6l-1-1.3c-0.1-0.1,0-0.3,0.2-0.3h2.2
		c0.1-0.3,0.2-0.6,0.2-1c0-1.6-1.2-2.9-2.8-2.9S33.3,7.5,33.3,9s1.2,2.9,2.8,2.9C36.6,11.9,37,11.8,37.4,11.6z M42.1,13.7
		c0.1,0.1,0,0.3-0.2,0.3h-2.4c-0.1,0-0.2,0-0.3-0.1l-0.4-0.5c-0.8,0.5-1.8,0.8-2.8,0.8c-2.9,0-5.2-2.4-5.2-5.2
		c0-2.9,2.3-5.2,5.2-5.2c2.9,0,5.2,2.4,5.2,5.2c0,1-0.3,2-0.8,2.8C40.5,11.8,42.1,13.7,42.1,13.7z M64,4h-1.9
		c-0.1,0-0.3,0.1-0.3,0.3v9.5c0,0.1,0.1,0.3,0.3,0.3H64c0.1,0,0.3-0.1,0.3-0.3V4.3C64.3,4.1,64.2,4,64,4L64,4z M60.8,4h-2.2
		c-0.1,0-0.2,0.1-0.2,0.2l-1.7,5.6l-1.9-5.6c0-0.1-0.1-0.2-0.2-0.2H53c-0.1,0-0.2,0.1-0.2,0.2l-1.9,5.6l-1.7-5.6
		C49.1,4.1,49,4,48.9,4h-2.2c-0.1,0-0.2,0-0.2,0.1c0,0.1-0.1,0.2,0,0.2l3.2,9.5c0,0.1,0.1,0.2,0.2,0.2h1.7c0.1,0,0.2-0.1,0.2-0.2
		l1.9-5.5l1.9,5.5c0,0.1,0.1,0.2,0.2,0.2h1.7c0.1,0,0.2-0.1,0.2-0.2L61,4.4c0-0.1,0-0.2,0-0.2C60.9,4.1,60.8,4,60.8,4L60.8,4z
		 M45.7,4.3v9.5c0,0.1-0.1,0.3-0.3,0.3h-1.9c-0.1,0-0.3-0.1-0.3-0.3V4.3c0-0.1,0.1-0.3,0.3-0.3h1.9C45.5,4,45.7,4.1,45.7,4.3
		L45.7,4.3z"/>
</g>
</svg>
