<?xml version="1.0" encoding="utf-8"?>
<!-- Generator: Adobe Illustrator 21.0.2, SVG Export Plug-In . SVG Version: 6.00 Build 0)  -->
<svg version="1.1" id="Слой_1" xmlns="http://www.w3.org/2000/svg" xmlns:xlink="http://www.w3.org/1999/xlink" x="0px" y="0px"
	 width="61.1px" height="19.7px" viewBox="0 0 61.1 19.7" style="enable-background:new 0 0 61.1 19.7;" xml:space="preserve">
<style type="text/css">
	.st0{fill:#5B6064;}
	.st1{fill:#8F9395;}
</style>
<g>
	<path class="st0" d="M0,0.6c0.8-0.4,1.8-0.3,2.6-0.3c2,0.1,4,0,6.1,0c0.9,0,1.7,0.8,1.8,1.6c0.6,3.1,1.2,6.2,1.8,9.2
		c-1-3.6-3.7-6.6-6.9-8.4C3.7,1.8,1.9,1.2,0,0.6L0,0.6z"/>
	<path class="st1" d="M17.6,0.4c1.8,0,3.5,0,5.2,0c-2.7,6.3-5.1,12.8-7.8,19.1c-1.7-0.1-3.4,0-5.1,0C8.3,13.9,6.9,8.4,5.4,2.8
		c3.2,1.9,5.9,4.8,6.9,8.4c0.2,0.7,0.3,1.4,0.4,2.1C14.3,9,16,4.7,17.6,0.4z M24.8,0.4c1.6,0,3.3,0,4.9,0c-1,6.4-2.1,12.7-3.1,19.1
		c-1.6,0-3.3,0-4.9,0C22.7,13.1,23.8,6.7,24.8,0.4z M34.4,1.6c2.9-1.9,6.8-1.9,10.1-0.8c-0.2,1.4-0.4,2.8-0.6,4.2
		c-1.7-0.8-3.8-1.2-5.6-0.7c-0.9,0.2-1.8,1.3-1,2.1c1.5,1.6,3.9,1.9,5.3,3.6c1.7,1.6,1.6,4.3,0.5,6.2c-1.2,2-3.5,3-5.7,3.4
		c-2.5,0.3-5.2,0.1-7.5-0.9c0.3-1.4,0.5-2.9,0.7-4.3c2,1.1,4.4,1.6,6.7,1.1c0.8-0.3,1.6-0.9,1.5-1.8c-0.3-1.1-1.4-1.5-2.3-2
		c-1.7-0.8-3.5-1.9-4.3-3.7C31.1,5.6,32.4,2.9,34.4,1.6L34.4,1.6z M57.1,0.4c1.4,6.4,2.7,12.7,4,19.1c-1.5,0-3,0-4.6,0
		c-0.2-1-0.4-1.9-0.6-2.9c-2.1,0-4.2,0-6.3,0c-0.3,1-0.7,1.9-1,2.9c-1.7,0-3.4,0-5.2,0c2.4-5.7,4.8-11.4,7.2-17.1
		c0.3-0.9,1-1.8,2-1.9C54.1,0.3,55.6,0.4,57.1,0.4z M53.7,5.5c-1,2.3-1.8,4.7-2.7,7.1c1.4,0,2.7,0,4.1,0C54.6,10.3,54,7.9,53.7,5.5z
		"/>
</g>
</svg>
